inDegrees=yes
name=ik_lifting_orientations
DataType=double
version=3
OpenSimVersion=4.5-2024-01-10-34fd6af
endheader
time	pelvis_tilt	pelvis_list	pelvis_rotation	pelvis_tx	pelvis_ty	pelvis_tz	hip_flexion_r	hip_adduction_r	hip_rotation_r	knee_angle_r	knee_angle_r_beta	ankle_angle_r	subtalar_angle_r	mtp_angle_r	hip_flexion_l	hip_adduction_l	hip_rotation_l	knee_angle_l	knee_angle_l_beta	ankle_angle_l	subtalar_angle_l	mtp_angle_l	lumbar_extension	lumbar_bending	lumbar_rotation	arm_flex_r	arm_add_r	arm_rot_r	elbow_flex_r	pro_sup_r	wrist_flex_r	wrist_dev_r	arm_flex_l	arm_add_l	arm_rot_l	elbow_flex_l	pro_sup_l	wrist_flex_l	wrist_dev_l
0.57	-0.968768260939918	-1.425863833352689	-107.137440161468	0	0.9399999998679526	0	46.26563546026227	-11.19496801370143	0	60.43520190841473	1.054793257409397	-5.483309951732991	0	0	46.26563546026227	-11.19496801370143	0	60.43520190841473	1.054793257409397	-5.483309951732991	0	0	-9.64925153610292	5.790542613104914	6.367462354745217	8.616710574658404	-4.545744470147911	3.030994964173507	6.113327026529391	1.92750873118923	0	0	0	-10.73828517173365	0	88.20356837194146	1.92750873118923	0	0
0.58	-0.5132600310801708	-0.9738348928472048	-106.2247675652413	0	0.9399999998679526	0	46.25677497270017	-11.17515546601257	0	60.43215990980426	1.054740164517804	-5.473760427501084	0	0	46.25677497270017	-11.17515546601257	0	60.43215990980426	1.054740164517804	-5.473760427501084	0	0	-9.206387801261792	5.707913917346556	5.591188145734086	9.500600710692874	-4.573776825491829	2.871584874827322	7.08110516533808	1.917142768817533	0	0	0	-10.75652856399578	0	88.21322823800875	1.917142768817533	0	0
0.59	-0.3646121933987071	-0.826771590215035	-106.019407438987	0	0.9399999998679526	0	46.24979729412456	-11.15984428103522	0	60.42975186930857	1.054698136282633	-5.466421471964443	0	0	46.24979729412456	-11.15984428103522	0	60.42975186930857	1.054698136282633	-5.466421471964443	0	0	-9.163002451033945	5.677776798532185	5.509486889771297	10.2554328865436	-4.649340319853581	2.805043116422516	8.187443770014406	1.908949741040801	0	0	0	-10.770984960762	0	88.22086319071663	1.908949741040801	0	0
0.6	-0.0575491803070696	-0.5237310348952379	-105.6459846605006	0	0.9399999998679526	0	46.24291101245237	-11.14466769074201	0	60.42738808205203	1.054656880412189	-5.459140051838305	0	0	46.24291101245237	-11.14466769074201	0	60.42738808205203	1.054656880412189	-5.459140051838305	0	0	-8.902039807028999	5.616051789496225	5.224480756988108	10.98986981320849	-4.662524611967561	2.767528705605175	8.948663583267317	1.900872658414045	0	0	0	-10.78522510446079	0	88.22839009345985	1.900872658414045	0	0
0.61	0.238946430876534	-0.221449009306516	-105.3461757356987	0	0.9399999998679526	0	46.23664442248906	-11.13090261079698	0	60.42524037102168	1.054619395783328	-5.452543698087728	0	0	46.23664442248906	-11.13090261079698	0	60.42524037102168	1.054619395783328	-5.452543698087728	0	0	-8.595675819158897	5.478928372420862	5.040770220970284	11.72585405858068	-4.579721150497215	2.705863403249372	9.649553302202373	1.893518763995994	0	0	0	-10.79819431063444	0	88.23524306962918	1.893518763995994	0	0
0.62	0.5220979871708081	0.05960838838660437	-104.9589030248102	0	0.9399999998679526	0	46.2293050534596	-11.11500572136237	0	60.42271876816976	1.054575385511135	-5.444960656439216	0	0	46.2293050534596	-11.11500572136237	0	60.42271876816976	1.054575385511135	-5.444960656439216	0	0	-8.381382750833644	5.347931121350018	4.976222535180055	12.42482805015219	-4.641866097995046	2.455360911176629	10.58538908835944	1.884884978496408	0	0	0	-10.8134460702914	0	88.2432887610139	1.884884978496408	0	0
0.63	0.7621326236928708	0.3135048822706775	-104.5526546583881	0	0.9399999998679526	0	46.22202483365891	-11.0995284880886	0	60.42020552487687	1.05453152114077	-5.437620148598209	0	0	46.22202483365891	-11.0995284880886	0	60.42020552487687	1.05453152114077	-5.437620148598209	0	0	-8.268873514617075	5.260080970753921	4.954438351471251	13.25882088957471	-4.754221443771913	2.160954618172778	11.68101536981404	1.876291106441414	0	0	0	-10.82866409989212	0	88.25129726516579	1.876291106441414	0	0
0.64	1.055340478920649	0.6207098295306235	-103.9676520928712	0	0.9399999998679526	0	46.21501232406551	-11.08463541896139	0	60.41779208604776	1.054489398686907	-5.43056065045828	0	0	46.21501232406551	-11.08463541896139	0	60.41779208604776	1.054489398686907	-5.43056065045828	0	0	-7.962009142503146	5.140284903588634	4.692008874045291	14.05109207358184	-4.878183634034158	1.917218540518052	12.64020217588621	1.868013173851875	0	0	0	-10.8433219974485	0	88.25901134972595	1.868013173851875	0	0
0.65	1.340272257274596	0.9505797567034506	-103.4589193760378	0	0.9399999998679526	0	46.20865796731729	-11.07107524408798	0	60.41561665779668	1.054451430301284	-5.424125347946115	0	0	46.20865796731729	-11.07107524408798	0	60.41561665779668	1.054451430301284	-5.424125347946115	0	0	-7.538598281811933	4.93965772970346	4.493170051111977	14.78166640382745	-4.859315837210529	1.502923479584249	13.42994056268576	1.860520383100144	0	0	0	-10.85657863447484	0	88.26599376982251	1.860520383100144	0	0
0.66	1.560940373677453	1.192340642460896	-103.0728571770231	0	0.9399999998679526	0	46.20245663245988	-11.05789198676499	0	60.41349654066178	1.054414427276752	-5.417877692312433	0	0	46.20245663245988	-11.05789198676499	0	60.41349654066178	1.054414427276752	-5.417877692312433	0	0	-7.361930767638555	4.809837317200031	4.568996955519317	15.69334159170306	-4.863941140319662	0.7032983386175901	14.07063331846971	1.853203956878205	0	0	0	-10.86952775623421	0	88.2728118393471	1.853203956878205	0	0
0.67	1.787754664250303	1.449841875464621	-102.3498827946159	0	0.9399999998679526	0	46.19542807861007	-11.04330751855748	0	60.41107646053433	1.054372188910366	-5.411017800115562	0	0	46.19542807861007	-11.04330751855748	0	60.41107646053433	1.054372188910366	-5.411017800115562	0	0	-7.1796552651766	4.707481812106112	4.424053016562267	16.6079797547124	-5.232379140238435	0.1577240009051962	14.81766288095496	1.844874472067807	0	0	0	-10.88431599593711	0	88.28057397232072	1.844874472067807	0	0
0.68	1.999360537349358	1.737544673285125	-101.5021142940974	0	0.9399999998679526	0	46.1880253722385	-11.02792993210216	0	60.40853878849509	1.054327898177946	-5.403785674288513	0	0	46.1880253722385	-11.02792993210216	0	60.40853878849509	1.054327898177946	-5.403785674288513	0	0	-6.885713492806643	4.576084976483166	4.173516060252	17.35056594799959	-5.597979894074558	-0.3659094079898501	15.68459923251166	1.836106014194695	0	0	0	-10.89987683519913	0	88.28874517693839	1.836106014194695	0	0
0.6899999999999999	2.17938717313961	1.95768962626051	-100.733639227877	0	0.9399999998679526	0	46.18121431888054	-11.01400511618003	0	60.40619510762298	1.054286993230111	-5.397268601612473	0	0	46.18121431888054	-11.01400511618003	0	60.40619510762298	1.054286993230111	-5.397268601612473	0	0	-6.675586763372182	4.464954886791962	3.921130999624205	18.21403408948309	-6.122902286786023	-0.9636726253436639	16.51566604775002	1.828014257983609	0	0	0	-10.91426685628631	0	88.29628577841905	1.828014257983609	0	0
0.7	2.360314955615871	2.206993158499352	-100.0003015460108	0	0.9399999998679526	0	46.17473966548526	-11.00079578383233	0	60.40397217393897	1.054248195718272	-5.391091549906952	0	0	46.17473966548526	-11.00079578383233	0	60.40397217393897	1.054248195718272	-5.391091549906952	0	0	-6.494685145171951	4.335349776458729	3.983134223871207	19.35365983553555	-6.909783510701963	-2.13141001104399	17.13849263276826	1.820320192080818	0	0	0	-10.92795153802316	0	88.30345577784423	1.820320192080818	0	0
0.71	2.510729551231723	2.442993958945267	-99.09815540055182	0	0.9399999998679526	0	46.16809671046018	-10.98741152998405	0	60.4016872542942	1.054208316347327	-5.384858189508437	0	0	46.16809671046018	-10.98741152998405	0	60.4016872542942	1.054208316347327	-5.384858189508437	0	0	-6.344642454584968	4.211465989222551	3.935062078351741	20.41085990905692	-7.569201359583497	-2.907076578106351	17.94688949255332	1.812408926570287	0	0	0	-10.94204350412971	0	88.31082818669671	1.812408926570287	0	0
0.72	2.622911172988465	2.644540556814022	-98.17821502368376	0	0.9399999998679526	0	46.16095396428483	-10.97306138625635	0	60.39923668908608	1.054165545915911	-5.37818344252551	0	0	46.16095396428483	-10.97306138625635	0	60.39923668908608	1.054165545915911	-5.37818344252551	0	0	-6.207897840987978	4.111375970262366	3.903338256330847	21.23267365144748	-8.238629510680578	-3.738194560195751	18.90328014589024	1.803900110196297	0	0	0	-10.95720176712022	0	88.31875744602114	1.803900110196297	0	0
0.73	2.762135331451067	2.873956244783998	-97.20730978178493	0	0.9399999998679526	0	46.15203590429999	-10.95544434808675	0	60.39616883606972	1.054112001779808	-5.370035076488643	0	0	46.15203590429999	-10.95544434808675	0	60.39616883606972	1.054112001779808	-5.370035076488643	0	0	-6.035637424355865	3.949851126760337	3.957415497184976	21.62468821955596	-8.899986132680654	-4.852655447021972	20.16076310252643	1.793245901300584	0	0	0	-10.97621908758723	0	88.32868597662515	1.793245901300584	0	0
0.74	2.877387360860876	3.078944088759431	-96.38557300903506	0	0.9399999998679526	0	46.1458405516652	-10.94317326493938	0	60.39404712413422	1.054074970920755	-5.364354899548024	0	0	46.1458405516652	-10.94317326493938	0	60.39404712413422	1.054074970920755	-5.364354899548024	0	0	-5.894152570901896	3.803702058555315	4.102728349832764	22.52236155213746	-9.596583679136844	-5.583313690233772	21.01898997372456	1.785848504440985	0	0	0	-10.98941765563737	0	88.33557952174428	1.785848504440985	0	0
